<?xml version="1.0" standalone="no"?>
<!DOCTYPE svg PUBLIC "-//W3C//DTD SVG 20010904//EN"
 "http://www.w3.org/TR/2001/REC-SVG-20010904/DTD/svg10.dtd">
<svg version="1.0" xmlns="http://www.w3.org/2000/svg"
 width="1752.000000pt" height="1420.000000pt" viewBox="0 0 1752.000000 1420.000000"
 preserveAspectRatio="xMidYMid meet">

<g transform="translate(0.000000,1420.000000) scale(0.100000,-0.100000)"
fill="#000000" stroke="none">
<path d="M3660 13654 c-301 -22 -599 -104 -864 -236 -363 -182 -583 -384 -712
-653 -54 -114 -73 -186 -80 -305 -11 -175 37 -317 149 -436 80 -86 123 -108
209 -107 52 0 79 6 122 27 100 49 176 160 176 256 0 46 -43 132 -81 165 -36
29 -117 55 -173 55 -78 -1 -166 -61 -166 -113 0 -43 -20 0 -32 70 -10 61 -9
83 5 149 44 202 209 417 440 573 89 60 370 190 522 240 465 154 862 142 1417
-46 153 -52 175 -62 255 -122 212 -158 497 -487 767 -882 l86 -127 -21 -47
c-80 -180 -128 -1012 -129 -2210 -1 -479 -7 -543 -60 -652 -44 -89 -134 -182
-217 -226 -108 -56 -176 -70 -346 -71 l-149 -1 4 -50 c11 -137 128 -275 283
-335 85 -34 264 -34 380 -1 260 73 483 306 593 621 36 103 70 260 77 361 l6
74 -26 -83 c-35 -116 -69 -196 -117 -277 -158 -269 -384 -451 -636 -516 -137
-35 -247 -22 -310 35 l-36 33 95 5 c260 15 486 200 652 533 24 50 55 118 67
152 l23 63 -12 437 c-29 1101 -32 1278 -26 1433 15 410 49 623 111 691 14 16
6 31 -87 176 -218 340 -448 637 -669 866 -150 157 -245 233 -338 272 -180 76
-468 155 -672 185 -126 19 -379 31 -480 24z m-1166 -1351 c66 -49 75 -127 23
-195 -28 -36 -39 -43 -66 -41 -50 2 -108 46 -122 91 -24 83 37 179 108 168 18
-3 43 -13 57 -23z"/>
<path d="M10270 13345 c-526 -72 -883 -338 -991 -740 -18 -65 -22 -110 -23
-235 -1 -185 10 -237 84 -385 93 -187 246 -327 427 -390 186 -65 431 -60 611
12 52 21 72 36 108 82 25 31 59 85 76 121 76 156 35 369 -89 462 -137 104
-297 105 -435 3 -62 -46 -88 -97 -88 -174 0 -61 32 -167 65 -214 15 -21 15
-20 15 19 0 98 52 192 124 225 102 46 193 1 241 -119 20 -48 12 -81 -35 -155
-43 -68 -89 -88 -235 -100 -113 -10 -124 -9 -190 13 -293 95 -449 334 -432
660 21 401 277 640 758 711 123 18 375 16 485 -4 402 -73 671 -283 750 -587
22 -85 22 -253 0 -343 -49 -206 -179 -396 -420 -616 -76 -69 -73 -70 59 -17
231 93 393 236 486 431 185 385 48 881 -313 1138 -84 60 -251 140 -348 166
-183 50 -475 65 -690 36z"/>
<path d="M4225 12585 c-329 -72 -491 -364 -355 -641 120 -244 511 -351 772
-212 77 41 172 143 212 227 30 63 31 72 31 191 0 121 -1 128 -32 191 -41 83
-121 160 -208 200 -114 54 -292 72 -420 44z m275 -181 c116 -34 175 -107 187
-227 12 -128 -34 -225 -129 -273 -45 -23 -69 -28 -159 -32 -125 -5 -191 10
-265 61 -98 67 -140 195 -100 301 27 71 119 150 206 177 46 14 204 10 260 -7z"/>
<path d="M7725 11270 c-110 -14 -192 -38 -301 -91 -346 -166 -597 -519 -695
-979 -33 -151 -33 -419 -2 -535 127 -466 556 -913 1009 -1051 79 -24 106 -28
234 -28 139 -1 148 0 205 27 208 97 260 318 118 503 -33 44 -134 112 -198 135
-137 48 -332 -1 -421 -105 -60 -70 -64 -137 -12 -193 l21 -23 -20 0 c-44 0
-161 44 -228 85 -81 51 -195 163 -253 250 -198 298 -247 689 -130 1055 105
330 337 609 575 691 57 20 88 24 188 24 148 0 227 -22 338 -95 184 -120 315
-295 533 -714 106 -205 110 -204 74 11 -53 309 -195 604 -381 792 -188 190
-408 271 -654 241z m295 -2221 c80 -36 158 -127 145 -169 -26 -81 -315 40
-315 131 0 24 6 33 33 44 45 20 84 18 137 -6z"/>
<path d="M11591 11265 c-86 -24 -170 -75 -248 -149 -40 -38 -73 -72 -73 -76 0
-4 17 -10 38 -14 54 -8 156 -60 232 -116 288 -213 591 -716 607 -1005 5 -88
-13 -238 -37 -299 l-10 -27 -57 39 c-135 91 -298 156 -488 194 -92 19 -144 23
-315 23 -219 0 -292 -9 -415 -52 -216 -76 -343 -208 -353 -368 -3 -51 0 -66
20 -95 50 -73 164 -109 292 -91 138 19 243 86 292 186 23 47 26 64 22 125 -3
61 -1 71 15 76 46 14 324 5 422 -14 172 -34 337 -108 445 -199 l30 -25 -42
-59 c-80 -115 -257 -258 -418 -339 -544 -273 -1330 -246 -1802 62 -96 63 -275
230 -345 322 -55 73 -117 201 -132 274 -38 185 21 411 139 531 25 25 99 78
165 116 152 88 266 197 313 295 98 208 52 419 -120 546 -145 107 -374 118
-520 25 -117 -74 -188 -204 -188 -346 0 -97 64 -195 153 -236 103 -46 247 -10
314 79 36 48 44 75 14 48 -25 -23 -81 -31 -122 -17 -110 36 -147 155 -72 233
40 42 95 68 145 68 94 0 218 -93 218 -164 0 -45 -32 -145 -63 -198 -40 -68
-133 -150 -227 -199 -149 -77 -274 -217 -339 -380 -43 -108 -53 -161 -53 -279
0 -135 25 -231 97 -375 120 -240 278 -398 565 -563 392 -225 831 -320 1237
-267 334 44 617 148 879 323 111 74 262 209 328 291 26 32 28 33 41 15 32 -43
96 -176 124 -260 63 -187 75 -276 75 -524 0 -124 -6 -256 -12 -295 -6 -38 -10
-71 -8 -72 7 -7 80 198 106 300 91 346 53 690 -105 954 -19 32 -43 69 -53 81
-18 23 -18 25 16 109 74 184 95 407 53 566 -44 166 -142 348 -282 522 -88 108
-284 305 -399 400 -52 43 -96 81 -97 84 -4 10 64 52 109 68 232 80 586 -331
699 -812 l19 -80 -6 90 c-27 460 -237 831 -529 937 -78 28 -218 34 -294 13z
m-636 -1713 c16 -98 -71 -182 -190 -182 -47 0 -56 4 -79 31 -56 67 -11 145
104 180 14 4 55 8 92 8 l66 1 7 -38z"/>
<path d="M14415 11253 c-199 -19 -519 -94 -717 -169 -163 -61 -379 -166 -530
-255 l-122 -72 59 -16 c129 -36 216 -97 259 -183 69 -138 -6 -285 -194 -384
-180 -95 -306 -217 -381 -369 -49 -101 -69 -176 -76 -290 -15 -247 90 -500
285 -687 96 -92 186 -146 312 -189 89 -31 104 -33 235 -33 184 -1 298 30 473
128 116 64 175 125 278 282 100 153 133 188 197 205 74 20 197 -10 240 -59 43
-48 60 -158 32 -211 -14 -28 -68 -61 -99 -61 -26 0 -88 29 -115 53 l-24 22 7
-44 c17 -111 81 -173 179 -173 89 1 191 87 218 185 16 60 6 190 -21 261 -59
157 -240 246 -439 217 -133 -20 -234 -83 -356 -225 -133 -155 -157 -176 -240
-216 -265 -128 -544 -97 -723 82 -149 148 -201 379 -129 570 56 148 150 246
312 330 172 88 274 213 306 376 23 119 -8 245 -79 320 l-31 33 77 36 c273 125
552 206 813 234 149 16 427 6 554 -21 459 -97 806 -364 1005 -775 190 -392
220 -887 86 -1430 -79 -317 -200 -608 -398 -955 l-20 -35 32 35 c46 52 185
254 263 383 268 442 427 966 427 1403 0 585 -266 1106 -720 1409 -236 157
-502 253 -792 284 -91 10 -352 12 -443 4z"/>
<path d="M2675 11204 c-292 -45 -583 -165 -840 -347 -123 -87 -328 -290 -412
-410 -113 -160 -200 -352 -239 -529 -22 -94 -24 -345 -5 -443 84 -429 422
-796 830 -902 124 -32 282 -29 374 6 119 46 207 143 207 230 0 176 -218 320
-486 321 -105 0 -176 -21 -226 -69 -35 -32 -40 -43 -40 -79 0 -22 6 -51 13
-63 l11 -22 -33 23 c-73 51 -150 124 -202 193 -263 344 -244 853 47 1238 304
402 889 651 1412 600 636 -62 1247 -527 1376 -1047 28 -113 30 -297 4 -394
-54 -210 -189 -375 -393 -483 -100 -52 -272 -112 -350 -123 -29 -3 -53 -11
-53 -16 0 -17 42 -93 86 -155 165 -232 440 -258 695 -64 203 153 354 417 367
642 2 48 1 104 -4 125 -7 37 -8 36 -15 -33 -17 -174 -127 -383 -276 -524 -122
-116 -263 -189 -376 -197 -98 -6 -150 10 -206 63 l-46 44 30 11 c69 25 217
107 320 175 246 164 432 372 496 555 28 81 31 241 5 372 -130 673 -747 1202
-1519 1303 -145 19 -428 18 -552 -1z m-485 -2223 c105 -54 158 -143 113 -193
-33 -37 -183 -19 -289 35 -62 32 -74 46 -81 96 -5 33 -1 44 22 66 25 26 30 27
108 23 59 -3 95 -11 127 -27z"/>
<path d="M10169 8080 c-86 -10 -199 -50 -266 -95 -99 -66 -234 -278 -262 -413
-25 -121 -10 -247 44 -361 70 -147 237 -274 415 -315 86 -21 255 -20 333 0
228 59 406 213 508 442 17 37 32 68 34 70 1 2 25 -8 52 -21 165 -84 466 -137
772 -137 600 1 1187 170 1588 458 35 25 61 47 59 49 -2 2 -99 -32 -217 -76
-459 -169 -834 -247 -1250 -258 -370 -10 -653 42 -929 174 -102 48 -116 52
-125 38 -152 -250 -275 -374 -456 -460 -189 -89 -373 -61 -476 73 -54 71 -78
197 -57 301 l7 32 46 -45 c69 -68 128 -91 232 -90 166 2 280 58 336 168 23 44
28 66 31 156 3 99 2 108 -25 160 -58 113 -210 171 -394 150z m195 -213 c54
-30 78 -67 84 -125 11 -118 -67 -211 -191 -228 -51 -7 -124 20 -170 64 -104
98 -61 243 87 299 54 20 146 16 190 -10z"/>
<path d="M9650 5767 l0 -244 -107 -6 c-254 -16 -478 -99 -684 -254 -254 -191
-401 -427 -453 -728 -7 -44 -10 -83 -7 -87 4 -4 54 1 111 13 333 64 628 88
889 70 468 -31 1064 -161 1426 -311 53 -23 100 -39 102 -36 10 9 -18 195 -43
289 -13 50 -42 140 -64 198 l-40 106 0 612 0 611 -200 0 -200 0 0 -360 c0
-198 -3 -360 -6 -360 -3 0 -28 20 -55 44 -66 60 -128 95 -224 127 l-80 27 -3
266 -2 266 -180 0 -180 0 0 -243z m150 -612 c175 -27 316 -77 443 -158 80 -52
206 -175 265 -260 50 -73 157 -276 149 -283 -2 -3 -45 11 -94 30 -545 208
-1162 273 -1767 185 -76 -11 -142 -19 -147 -17 -17 6 76 135 150 208 154 153
352 253 583 295 99 18 302 18 418 0z"/>
<path d="M3142 5580 c-110 -29 -187 -74 -272 -160 -87 -86 -122 -147 -150
-256 -77 -298 93 -631 373 -732 64 -24 87 -26 212 -27 121 0 149 3 207 23 183
63 333 230 383 427 19 76 19 241 0 324 -22 94 -70 177 -145 251 -77 76 -159
123 -266 150 -101 26 -242 26 -342 0z m294 -237 c62 -21 138 -97 179 -178 28
-57 30 -66 30 -180 0 -103 -3 -127 -23 -169 -50 -109 -117 -158 -239 -176
-278 -39 -479 180 -423 462 29 149 112 232 259 258 61 11 156 4 217 -17z"/>
<path d="M6875 3594 c-90 -86 -166 -162 -169 -171 -3 -8 -6 -472 -6 -1031 l0
-1017 -30 -45 c-76 -113 -104 -321 -62 -456 57 -184 254 -314 476 -314 193 0
344 80 415 218 48 94 69 299 41 402 -47 173 -176 293 -331 307 l-59 6 0 1128
0 1129 -55 0 -55 0 -165 -156z m300 -2269 c120 -31 177 -96 194 -220 11 -79 1
-180 -25 -245 -21 -53 -91 -114 -151 -131 -27 -8 -87 -14 -134 -13 -73 0 -96
5 -143 28 -104 51 -150 138 -150 286 0 101 14 139 75 205 87 94 199 125 334
90z"/>
<path d="M10473 3742 c-6 -4 -77 -97 -157 -207 l-145 -200 -3 -1140 -3 -1140
-22 -47 c-31 -67 -71 -85 -150 -69 -130 26 -218 83 -694 453 l-259 200 0 832
c0 555 -4 852 -11 892 -35 190 -204 362 -401 409 -83 19 -248 19 -323 0 -114
-30 -238 -120 -292 -212 -67 -115 -85 -299 -42 -437 28 -93 103 -170 216 -223
69 -33 88 -38 173 -41 67 -3 115 1 159 12 34 9 65 16 67 16 2 0 4 -280 4 -622
l0 -623 -85 -17 c-287 -55 -435 -239 -435 -538 1 -253 111 -400 346 -460 193
-50 367 -7 488 120 107 112 136 208 136 458 0 89 3 162 6 162 6 0 194 -149
465 -367 327 -264 537 -393 638 -393 54 0 139 27 194 62 97 62 205 208 250
338 l22 65 3 1354 c2 1089 0 1356 -10 1363 -16 10 -119 10 -135 0z m-1960
-208 c60 -20 131 -84 165 -148 36 -69 38 -189 4 -253 -33 -63 -74 -106 -134
-139 -48 -26 -62 -29 -143 -29 -104 0 -149 18 -215 86 -62 64 -85 121 -84 209
1 85 16 129 63 183 84 95 224 132 344 91z m77 -2413 c0 -245 -1 -260 -21 -284
-40 -52 -164 -60 -234 -17 -53 33 -86 111 -93 218 -10 188 57 287 223 328 28
7 67 13 88 13 l37 1 0 -259z"/>
<path d="M2225 3733 c-173 -22 -363 -79 -485 -144 -303 -163 -551 -504 -596
-821 l-6 -48 136 0 136 0 0 -1080 0 -1080 225 0 225 0 0 1070 0 1070 240 0
240 0 0 125 0 125 -465 0 c-356 0 -465 3 -465 12 0 7 20 53 45 104 82 168 191
281 350 360 111 55 209 80 367 94 227 21 470 -15 624 -90 168 -83 313 -259
371 -450 16 -50 17 -166 20 -1237 l4 -1183 62 0 63 0 157 171 157 172 0 1011
c0 1119 1 1084 -65 1225 -98 207 -314 411 -530 500 -92 38 -229 75 -339 90
-72 10 -403 13 -471 4z"/>
<path d="M5000 3734 c-14 -2 -58 -9 -98 -15 -193 -28 -376 -127 -536 -288
l-78 -79 31 -95 32 -94 107 107 c177 177 290 230 507 238 191 6 300 -25 402
-113 53 -46 109 -157 123 -245 6 -41 10 -524 10 -1327 l0 -1263 225 0 225 0
-2 1327 -3 1328 -21 62 c-12 35 -36 86 -54 113 -93 146 -324 280 -558 324 -83
16 -268 28 -312 20z"/>
<path d="M12392 3730 c-201 -17 -389 -63 -517 -128 -131 -66 -277 -192 -378
-327 -55 -74 -157 -262 -157 -290 0 -11 149 -110 154 -103 2 2 24 38 50 81
203 340 459 514 796 542 177 14 468 -28 622 -90 222 -90 365 -250 397 -442 8
-48 11 -322 9 -943 l-3 -875 -27 -57 c-87 -185 -372 -338 -633 -338 -223 0
-454 112 -555 270 -68 106 -70 122 -70 612 l0 439 22 -7 c83 -26 245 -19 340
14 197 69 317 285 288 517 -17 130 -58 214 -144 293 -96 87 -194 122 -346 122
-125 0 -217 -21 -318 -71 -105 -51 -186 -129 -230 -219 -60 -123 -62 -140 -62
-836 0 -602 1 -635 20 -696 28 -90 88 -178 189 -279 196 -194 413 -303 683
-343 352 -53 664 32 966 262 161 123 252 224 305 338 l22 49 0 865 c0 956 3
913 -65 1057 -137 295 -484 517 -893 572 -113 16 -346 21 -465 11z m-2 -947
c87 -35 131 -110 138 -233 8 -144 -25 -216 -120 -264 -47 -23 -71 -28 -135
-30 -104 -1 -166 18 -219 68 -56 54 -78 128 -72 235 9 143 72 216 208 241 57
10 154 2 200 -17z"/>
<path d="M15625 3721 c-194 -55 -339 -212 -364 -393 -25 -183 54 -385 187
-475 97 -66 270 -81 407 -35 33 12 61 19 62 18 2 -2 2 -366 1 -811 l-3 -808
-430 384 c-236 211 -542 484 -679 606 -137 123 -253 223 -258 223 -4 0 -8 -42
-8 -93 0 -71 4 -98 17 -117 10 -14 184 -227 387 -475 591 -718 876 -1066 925
-1127 l46 -57 223 0 222 -1 0 1329 c0 1103 -2 1342 -14 1403 -47 243 -163 379
-371 433 -82 21 -271 19 -350 -4z m184 -212 c115 -24 172 -101 179 -240 5 -95
-5 -141 -45 -202 -54 -85 -225 -119 -341 -68 -138 62 -199 228 -131 363 64
129 183 181 338 147z"/>
</g>
</svg>
